PathFileType	4	(X/Y/Z)	OpenSim_Sub11_EMGPreOp_Gyro.trc
DataRate	CameraRate	NumFrames	NumMarkers	Units	OrigDataRate	OrigDataStartFrame	OrigNumFrames
100	100	13	8	m	100	4414	5885
Frame#	Time	torso_imu_offset_imu	pelvis_imu_offset_imu	tibia_r_imu_offset_imu	femur_r_imu_offset_imu	tibia_l_imu_offset_imu	femur_l_imu_offset_imu	toes_r_imu_offset_imu	toes_l_imu_offset_imu
				X1	Y1	Z1	X2	Y2	Z2	X3	Y3	Z3	X4	Y4	Z4	X5	Y5	Z5	X6	Y6	Z6	X7	Y7	Z7	X8		Y8	Z8	

4414	44.13000000	0.30623233	-0.16719823	0.08214540	0.33625038	0.05492114	-0.09877130	0.09236792	-0.01605350	-0.31047780	-0.11998753	-0.06213108	-0.30848329	-0.65878166	-0.15759713	-3.21969376	-0.14968979	-0.13388724	0.33374505	0.01843832	0.00046042	-0.00858815	0.66634111	2.64203906	-1.71088448
4415	44.14000000	0.29103503	-0.14176979	0.08359160	0.31159855	0.02957935	-0.09766785	0.12297246	-0.00417429	-0.31165018	-0.00964131	-0.04291218	-0.30905650	-0.77649120	-0.09329786	-3.18723845	-0.25994931	-0.20630220	0.46096668	-0.00487367	-0.01342399	-0.00445677	0.56864878	2.55653490	-1.81920743
4416	44.15000000	0.29295598	-0.12273862	0.09387602	0.28235551	0.00174304	-0.09613032	0.12162696	0.00528833	-0.31013480	0.12820666	-0.02165386	-0.31116660	-0.92871025	-0.03790477	-3.14112995	-0.24322308	-0.27099560	0.62040376	0.00504785	-0.01560920	0.00650033	0.39667213	2.51250702	-1.92133304
4417	44.16000000	0.28605860	-0.10565860	0.10424779	0.24253277	-0.02186290	-0.10413288	0.10042298	0.01324974	-0.29349122	0.27293742	-0.00677753	-0.31682486	-1.05898531	0.01855415	-3.05102628	-0.13547376	-0.30200980	0.76540442	-0.00776460	-0.02247079	0.00397100	0.21235176	2.41746659	-2.03317809
4418	44.17000000	0.27190366	-0.07913415	0.10548999	0.19559647	-0.02590704	-0.10431794	0.09350621	0.02441706	-0.28988350	0.39121744	-0.00667908	-0.31990852	-1.10636756	0.04824536	-2.90460882	-0.00425512	-0.31696115	0.86998911	-0.01844636	-0.02013948	0.02144494	0.02104566	2.23631320	-2.12698612
4419	44.18000000	0.26106490	-0.06247613	0.10295576	0.14616695	-0.03375422	-0.09670193	0.08048798	0.03395361	-0.32860048	0.46402880	-0.02125832	-0.31792608	-1.12849750	0.05889977	-2.69860385	0.11824342	-0.35031681	0.93133012	-0.04758904	-0.02593987	0.02950556	-0.24161605	1.95406517	-2.17794188
4420	44.19000000	0.29102104	-0.05351462	0.11023205	0.09761878	-0.02630774	-0.07527504	0.02746563	0.02341015	-0.35824939	0.46265333	-0.03265785	-0.31366675	-1.15209139	0.05664262	-2.45909341	0.24129745	-0.40819282	0.94899380	-0.03029583	-0.04556444	0.02640125	-0.44276763	1.58175211	-2.16700232
4421	44.20000000	0.27376319	-0.04117800	0.11577196	0.05547982	-0.01726411	-0.05522134	-0.03289184	0.01939995	-0.34949940	0.39720184	-0.04192536	-0.30491552	-1.17281982	0.05176358	-2.18215521	0.38773071	-0.45505082	0.94952192	-0.04275628	-0.03349128	0.02535714	-0.62523644	1.12878802	-2.05768290
4422	44.21000000	0.21875553	-0.03490824	0.10269618	0.02927812	-0.00152934	-0.04335392	-0.05392391	0.02525942	-0.33666534	0.27917152	-0.04842618	-0.30178449	-1.16988894	0.07436495	-1.85427110	0.52588513	-0.48613938	0.91197059	-0.02880861	-0.04269500	0.02601382	-0.78758848	0.65659333	-1.82427538
4423	44.22000000	0.22578251	-0.03705173	0.09131038	0.00810395	0.01337440	-0.04537047	-0.04415987	0.02805003	-0.35868169	0.14020542	-0.05732795	-0.29693147	-1.19321521	0.08757545	-1.48237001	0.61176481	-0.51084333	0.84385826	-0.04234887	-0.03916397	0.02411002	-1.01949503	0.26204930	-1.51449204
4424	44.23000000	0.23942558	-0.05548635	0.08433003	-0.01782437	0.02159713	-0.05288742	-0.04625183	0.03255031	-0.38567468	-0.00642430	-0.06606804	-0.28790417	-1.31577729	0.06962684	-1.06120287	0.62470461	-0.52406548	0.75570997	-0.01871049	-0.05544951	0.01713061	-1.23086161	-0.16953558	-1.20390013
4425	44.24000000	0.20746448	-0.06549291	0.08067557	-0.03771270	0.03216084	-0.06594135	-0.03178412	0.04356969	-0.40351275	-0.14067334	-0.07144328	-0.27434026	-1.48876860	0.02868413	-0.60862297	0.53481235	-0.52810262	0.66874525	-0.03950301	-0.04635030	0.02016374	-1.39112438	-0.64051322	-0.95529668
4426	44.25000000	0.19168138	-0.05518917	0.07817591	-0.04972464	0.03567660	-0.07117315	-0.00728407	0.05659364	-0.41854500	-0.25133597	-0.07788422	-0.26983962	-1.58525358	-0.05191529	-0.15212367	0.37994530	-0.53207854	0.56721686	-0.02616647	-0.06890957	0.01926697	-1.39597701	-1.04254831	-0.80259185
